<svg width="49" height="40" viewBox="0 0 49 40" fill="none" xmlns="http://www.w3.org/2000/svg">
<g id="logo" clip-path="url(#clip0_26_170)">
<rect id="Rectangle 1" x="12.4138" y="13.8621" width="7.58621" height="6.2069" rx="3.10345" stroke="#262626" stroke-width="1.37931"/>
<rect id="Rectangle 2" x="24.8276" y="13.8621" width="8.27586" height="6.2069" rx="3.10345" stroke="#262626" stroke-width="1.37931"/>
<path id="Vector 1" d="M20 16.6207H24.8276" stroke="#262626" stroke-width="1.37931"/>
<path id="Vector 2" d="M18.6206 6.27585C19.3448 7.08866 19.9008 8.02184 20.6837 8.79549C22.1318 10.2266 23.7194 11.7184 25.5555 12.5977C26.4578 13.0298 27.3403 13.5121 28.2758 13.8621" stroke="#262626" stroke-width="1.37931" stroke-linecap="round"/>
<path id="Vector 3" d="M20.6896 9.03448C20.6896 9.12271 20.6714 9.12498 20.6122 9.18944C20.1963 9.64276 19.8411 10.1557 19.4159 10.6079C18.7276 11.3399 17.9168 12.2229 17.0174 12.7118C16.7677 12.8475 16.5501 13.0585 16.2913 13.1767C15.9895 13.3145 15.7187 13.4995 15.4342 13.6714C15.3413 13.7275 15.219 13.7687 15.1724 13.8621" stroke="#262626" stroke-width="1.37931" stroke-linecap="round"/>
<path id="Vector 4" d="M21.3794 16.6207C21.3794 17.6277 21.3794 18.58 21.3794 19.5974C21.3794 19.9941 21.3794 20.3511 21.3794 20.7586" stroke="#262626" stroke-width="1.37931" stroke-linecap="round"/>
<path id="Rectangle 3" d="M12.4138 18.6897V19.3793C12.4138 23.95 16.1191 27.6552 20.6897 27.6552H24.8276C29.3982 27.6552 33.1035 23.95 33.1035 19.3793V18.6897" stroke="#262626" stroke-width="1.37931"/>
<path id="Rectangle 5" d="M37.2414 35.6552V40.069H12.4138V35.6552C12.4138 31.2369 15.9955 27.6552 20.4138 27.6552H29.2414C33.6597 27.6552 37.2414 31.2369 37.2414 35.6552Z" stroke="#262626" stroke-width="1.37931"/>
<path id="Vector 13" d="M19.1379 28C20.4713 30.2639 24.1379 33.4333 28.1379 28" stroke="#262626" stroke-linecap="round"/>
<path id="Rectangle 4" d="M37.9311 30.4138V15.9017V15.5862C37.9311 7.39714 31.2925 0.758607 23.1035 0.758607V0.758607C14.9144 0.758607 8.27588 7.39714 8.27588 15.5862V15.9017V30.4138" stroke="#262626" stroke-width="1.37931" stroke-linecap="round"/>
<path id="Vector 6" d="M32.069 23.8621C32.1961 23.8342 33.0315 22.9051 33.1035 22.8276C33.4055 22.5019 34.056 21.9543 34.3905 21.6572C35.0724 21.0515 35.6228 20.365 36.1483 19.6561C36.5549 19.1075 36.8966 18.31 36.8966 17.6552C36.8966 17.1306 36.6694 16.5449 36.1662 16.1502C35.8057 15.8674 34.9992 15.8833 34.605 16.0561" stroke="#262626" stroke-width="1.37931" stroke-linecap="round"/>
<path id="Vector 8" d="M12.8767 23.5723C12.764 23.5073 12.2492 22.3688 12.2041 22.2731C12.0148 21.8713 11.5607 21.1524 11.3319 20.768C10.8655 19.9842 10.5488 19.1633 10.2627 18.3285C10.0413 17.6825 9.95722 16.819 10.1555 16.1949C10.3144 15.695 10.7083 15.2056 11.3074 14.9818C11.7365 14.8214 12.5004 15.0809 12.8237 15.3649" stroke="#262626" stroke-width="1.37931" stroke-linecap="round"/>
<path id="Vector 7" d="M19.6552 23.8621H26.5517" stroke="#262626" stroke-width="1.37931" stroke-linecap="round"/>
<path id="Vector 9" d="M35.1379 22V29" stroke="#262626" stroke-width="1.37931" stroke-linecap="round"/>
<path id="Vector 10" d="M12.1379 23L12.1379 30" stroke="#262626" stroke-width="1.37931" stroke-linecap="round"/>
<path id="Vector 11" d="M14.4827 24.8965V29.7241" stroke="#262626" stroke-width="1.37931" stroke-linecap="round"/>
<path id="Vector 12" d="M32.1379 24L32.1379 28" stroke="#262626" stroke-width="1.37931" stroke-linecap="round"/>
</g>
<defs>
<clipPath id="clip0_26_170">
<rect width="48.2759" height="40" fill="white"/>
</clipPath>
</defs>
</svg>
